<?xml version="1.0" standalone="no"?>
<!DOCTYPE svg PUBLIC "-//W3C//DTD SVG 20010904//EN"
 "http://www.w3.org/TR/2001/REC-SVG-20010904/DTD/svg10.dtd">
<svg version="1.0" xmlns="http://www.w3.org/2000/svg"
 width="450.000000pt" height="450.000000pt" viewBox="0 0 450.000000 450.000000"
 preserveAspectRatio="xMidYMid meet">
<metadata>
Created by potrace 1.11, written by Peter Selinger 2001-2013
</metadata>
<g transform="translate(0.000000,450.000000) scale(0.100000,-0.100000)"
fill="#000000" stroke="none">
<path d="M2104 4489 c-599 -28 -1095 -221 -1271 -496 -58 -92 -75 -152 -80
-300 -3 -73 -8 -133 -10 -133 -21 0 -171 91 -223 135 -68 58 -81 63 -99 41
-10 -11 -5 -28 20 -77 17 -34 41 -79 54 -98 13 -20 26 -55 29 -79 8 -52 45
-129 85 -174 15 -18 32 -44 36 -58 12 -39 55 -122 81 -157 l24 -32 0 -600 c0
-643 4 -704 49 -838 16 -46 27 -83 26 -83 -4 0 -125 46 -170 65 -22 9 -35 13
-30 7 37 -35 266 -222 283 -231 19 -10 142 -153 142 -164 0 -17 -285 65 -363
104 -20 11 -37 18 -37 15 0 -11 182 -122 270 -166 55 -27 101 -52 101 -55 1
-4 -29 -44 -65 -90 -36 -46 -66 -90 -66 -98 0 -23 80 -127 136 -176 154 -137
409 -260 577 -277 l68 -7 16 42 17 42 275 -275 276 -276 275 275 c151 151 278
275 281 275 3 0 12 -19 19 -41 l14 -41 68 6 c173 16 420 134 582 277 55 48
136 153 136 175 0 8 -32 55 -71 104 -40 50 -70 92 -68 94 2 1 35 17 73 34 70
33 212 116 256 152 20 16 10 14 -53 -10 -87 -34 -251 -80 -284 -80 -20 0 -15
10 42 78 36 43 86 94 112 113 42 32 194 159 232 194 7 7 -29 -4 -80 -25 -52
-21 -96 -36 -97 -34 -2 1 6 29 18 61 48 127 50 164 50 835 l0 629 24 32 c27
35 76 135 76 154 0 6 13 26 29 44 39 42 91 149 91 186 0 16 14 51 32 79 69
109 91 184 53 184 -8 0 -44 -25 -82 -55 -80 -64 -180 -125 -205 -125 -16 0
-18 11 -18 113 0 128 -16 202 -61 287 -185 347 -822 554 -1595 519z m629 -68
c546 -84 898 -293 972 -576 16 -61 22 -305 8 -305 -5 0 -18 -3 -29 -6 -22 -6
-22 -3 -26 128 -5 157 -23 214 -97 311 -384 500 -1877 563 -2484 106 -82 -62
-139 -131 -181 -219 -29 -61 -31 -74 -34 -197 -4 -121 -6 -133 -22 -133 -46 0
-50 8 -50 104 1 136 14 211 55 293 40 82 120 169 213 232 193 131 519 236 837
270 55 6 116 13 135 15 19 2 154 3 300 1 207 -3 295 -8 403 -24z m318 -305
c78 -17 130 -42 216 -103 66 -46 126 -122 121 -151 -2 -10 -55 -109 -118 -220
-107 -188 -134 -222 -170 -222 -6 0 -10 63 -10 155 l0 155 -147 0 -148 0 -26
41 -27 42 31 51 c16 28 56 96 89 151 70 121 77 124 189 101z m-1391 -107 c36
-61 86 -148 112 -192 l48 -82 -198 -5 -197 -5 -3 -158 -3 -157 -27 14 c-19 10
-61 73 -144 219 -65 112 -118 213 -118 224 0 29 56 96 120 144 104 78 180 107
280 108 l66 1 64 -111z m-1145 -339 c33 -28 98 -70 145 -94 136 -70 237 -95
461 -116 69 -6 141 -20 203 -40 l96 -31 0 -123 0 -122 -39 -22 c-21 -12 -41
-22 -44 -22 -3 0 -8 14 -12 30 -7 31 -38 57 -135 112 -79 45 -169 78 -321 118
-81 22 -170 50 -197 64 -64 32 -148 125 -195 213 -54 103 -50 106 38 33z
m3540 28 c-14 -46 -90 -164 -135 -208 -60 -61 -125 -90 -299 -134 -148 -37
-271 -88 -374 -154 -80 -52 -87 -76 -96 -362 -6 -168 -12 -234 -23 -261 -36
-83 -38 -63 -38 379 l0 430 41 16 c60 24 198 56 243 56 76 0 253 32 341 61
108 36 189 81 270 148 68 56 79 61 70 29z m-1845 -43 c0 -6 -224 -156 -365
-245 -86 -54 -315 -195 -337 -207 -5 -2 -8 100 -8 226 l0 231 355 0 c195 0
355 -2 355 -5z m810 -599 l0 -605 -57 -44 c-88 -67 -365 -258 -370 -254 -11
12 33 253 87 477 40 165 54 289 54 504 l1 190 -50 12 c-56 15 -199 39 -290 49
-60 7 -60 7 -35 24 13 9 88 64 166 122 77 58 149 111 160 117 12 7 79 12 177
12 l157 0 0 -604z m-730 554 c29 -15 84 -100 73 -111 -6 -6 -24 11 -47 46 -25
38 -43 55 -54 53 -28 -5 -25 -36 7 -87 33 -50 37 -61 22 -61 -5 0 -24 22 -42
50 -57 84 -105 57 -50 -28 30 -48 38 -72 24 -72 -12 0 -73 98 -73 117 0 20 28
53 46 53 7 0 24 11 38 25 28 28 30 29 56 15z m-1560 -236 c40 -13 90 -27 112
-30 23 -4 42 -13 45 -23 3 -9 16 -42 28 -73 17 -42 19 -58 10 -58 -23 0 -219
71 -253 92 -39 24 -88 93 -113 159 l-19 49 59 -46 c36 -27 86 -55 131 -70z
m1415 69 c33 -46 43 -73 28 -73 -4 0 -16 11 -28 25 -19 24 -21 25 -43 10 -20
-15 -21 -18 -7 -38 16 -23 20 -47 7 -47 -10 0 -72 102 -72 120 0 22 31 50 56
50 17 0 34 -14 59 -47z m1804 6 c-16 -51 -79 -140 -117 -166 -30 -20 -232 -93
-258 -93 -8 0 -5 14 7 37 10 20 22 52 25 70 5 28 12 34 48 43 158 41 223 70
272 121 15 16 29 27 30 26 2 -2 -1 -19 -7 -38z m-1926 -79 c38 -61 44 -80 28
-80 -11 0 -81 112 -81 129 0 24 17 8 53 -49z m-53 -41 c11 -43 16 -77 10 -83
-9 -9 -130 80 -130 95 0 16 17 9 61 -25 24 -19 45 -33 47 -32 2 2 -3 29 -11
59 -8 31 -12 58 -9 61 9 10 13 1 32 -75z m587 17 c45 -8 100 -20 123 -26 l43
-11 -6 -212 c-6 -228 -20 -338 -66 -507 -43 -156 -61 -246 -75 -367 -9 -87
-15 -108 -28 -111 -15 -3 -17 4 -12 50 13 133 39 272 74 402 21 77 43 168 49
202 15 83 33 367 23 375 -14 13 -266 29 -469 29 l-206 0 149 100 149 101 85
-6 c47 -2 122 -11 167 -19z m-1494 -71 c118 -50 228 -117 238 -143 15 -38 11
-49 -26 -72 l-35 -21 -62 29 c-35 16 -89 42 -121 57 -65 30 -99 69 -128 146
l-20 51 38 -6 c21 -4 73 -22 116 -41z m788 24 c13 -13 19 -29 17 -44 -4 -17 1
-26 19 -34 28 -13 31 -36 3 -27 -67 21 -63 21 -55 -13 3 -17 3 -31 -2 -31 -9
0 -83 114 -83 128 0 8 56 40 73 41 4 1 16 -8 28 -20z m1733 -1 c-32 -106 -64
-139 -199 -202 -61 -29 -129 -65 -151 -80 -49 -33 -54 -33 -54 5 0 62 22 119
54 144 77 58 285 153 339 154 14 1 17 -4 11 -21z m-2750 -104 c76 -25 155 -57
174 -70 19 -13 39 -24 43 -24 5 0 9 -9 9 -20 0 -11 9 -42 19 -70 13 -35 15
-50 7 -50 -23 0 -246 79 -286 101 -40 23 -69 60 -109 136 -24 49 -26 57 -8 50
6 -3 75 -27 151 -53z m866 38 c-19 -16 -21 -22 -11 -40 10 -19 15 -20 32 -11
27 14 37 4 11 -12 -19 -12 -19 -14 -5 -36 15 -22 17 -23 40 -8 13 9 29 15 35
13 11 -4 -55 -48 -70 -48 -4 0 -24 28 -46 62 l-38 62 22 18 c12 10 29 18 37
18 11 0 9 -5 -7 -18z m2130 8 c0 -15 -28 -67 -62 -118 -35 -50 -75 -72 -228
-124 -140 -47 -145 -47 -126 -10 8 15 19 46 25 69 10 35 19 46 64 71 28 17 91
42 139 56 47 14 106 35 130 45 51 23 58 24 58 11z m-2202 -77 c2 -9 -5 -11
-28 -6 -28 5 -32 3 -28 -13 3 -15 11 -19 42 -17 48 3 66 -10 66 -48 0 -30 -23
-49 -60 -49 -21 0 -38 25 -25 38 4 4 10 1 12 -5 7 -20 53 -16 53 5 0 33 -16
45 -49 37 -50 -11 -81 31 -49 63 16 16 60 12 66 -5z m-486 -102 c72 -33 75
-37 39 -55 -36 -19 -38 -31 -11 -66 30 -38 24 -47 -10 -15 -30 28 -56 75 -70
126 -10 34 -5 35 52 10z m2272 -8 c-21 -86 -65 -138 -155 -183 -43 -22 -81
-40 -84 -40 -3 0 -5 27 -5 60 0 59 0 60 43 87 63 41 180 102 195 103 8 0 10
-8 6 -27z m-1585 -190 c7 -77 24 -171 47 -260 73 -273 104 -464 104 -637 0
-39 4 -76 8 -83 4 -6 29 -21 55 -32 26 -11 47 -22 47 -25 0 -2 -15 -14 -34
-25 -23 -15 -42 -19 -63 -15 l-29 6 -12 176 c-15 225 -31 320 -93 567 -59 236
-93 490 -68 505 18 12 23 -14 38 -177z m1889 -553 c-4 -521 -5 -548 -25 -622
-34 -121 -64 -172 -109 -186 -21 -6 -39 -10 -41 -8 -2 2 15 37 37 78 79 147
80 156 80 794 l0 564 28 56 27 56 3 -94 c2 -51 1 -338 0 -638z m-2561 584 c52
-36 54 -55 8 -77 -34 -16 -37 -16 -112 13 -115 45 -154 70 -190 124 -18 26
-33 52 -33 56 0 15 284 -86 327 -116z m2508 96 c-26 -51 -73 -97 -123 -120
-79 -38 -272 -109 -272 -100 0 26 45 99 75 124 28 22 262 111 328 124 4 1 1
-11 -8 -28z m-2836 -30 l30 -49 3 -578 c3 -567 4 -579 25 -643 13 -36 41 -96
63 -134 22 -37 40 -70 40 -71 0 -2 -23 4 -52 14 -50 17 -53 20 -81 86 -59 141
-60 145 -64 813 -3 336 -2 612 0 612 3 0 19 -22 36 -50z m931 10 c0 -72 31
-260 61 -373 69 -261 80 -308 94 -417 9 -63 18 -179 22 -257 6 -140 6 -142 31
-148 32 -8 30 -10 -116 -95 -141 -82 -150 -83 -213 -18 -78 81 -131 223 -145
391 -3 46 -3 249 1 450 l7 367 122 70 c66 38 124 70 129 70 4 0 7 -18 7 -40z
m-759 -143 c30 -13 63 -27 74 -31 17 -7 14 -11 -23 -27 -24 -10 -48 -17 -53
-13 -16 9 -70 94 -61 94 5 0 34 -11 63 -23z m2255 -25 c-19 -38 -65 -92 -77
-92 -5 0 -9 20 -9 45 0 43 2 45 48 69 52 27 61 22 38 -22z m299 21 c-26 -42
-67 -83 -96 -98 -30 -16 -187 -57 -200 -53 -5 2 -1 19 9 38 15 31 29 39 132
78 63 23 124 47 135 52 34 15 38 11 20 -17z m-2335 -87 c0 -6 -12 -19 -26 -29
-28 -21 -66 -18 -126 8 -38 16 -32 19 57 32 67 9 95 6 95 -11z m198 -203 l-3
-78 -22 65 c-13 36 -27 94 -31 129 l-9 63 31 19 31 19 3 -70 c2 -38 2 -104 0
-147z m1822 172 c-7 -9 -15 -13 -18 -10 -3 2 1 11 8 20 7 9 15 13 18 10 3 -2
-1 -11 -8 -20z m-1900 -54 l-1 -26 -14 25 c-18 32 -18 41 0 34 8 -4 15 -18 15
-33z m1840 -1 c-16 -31 -23 -19 -9 16 6 16 13 24 16 17 2 -7 -1 -22 -7 -33z
m-1890 20 c0 -5 -7 -10 -15 -10 -8 0 -15 5 -15 10 0 6 7 10 15 10 8 0 15 -4
15 -10z m2054 -31 c-23 -26 -58 -44 -101 -53 l-32 -7 12 30 c10 26 19 32 72
44 33 7 62 12 64 10 2 -1 -4 -12 -15 -24z m-2080 0 c31 -7 48 -19 60 -41 18
-29 18 -30 0 -25 -11 3 -37 8 -59 12 -46 8 -108 42 -99 56 7 12 46 11 98 -2z
m1895 -240 c36 -39 56 -77 47 -86 -4 -5 -17 3 -27 17 -64 80 -69 84 -86 67
-16 -15 -15 -20 13 -59 42 -60 44 -62 35 -76 -5 -9 -19 3 -42 37 -34 51 -53
66 -70 55 -17 -10 -9 -39 21 -78 30 -39 38 -66 21 -66 -5 0 -26 25 -46 55 -33
48 -37 58 -27 79 6 13 20 27 32 31 11 4 32 17 45 31 32 32 50 30 84 -7z m-209
-99 c0 -5 -7 -13 -16 -18 -13 -7 -14 -13 -4 -31 11 -21 13 -21 36 -6 27 18 35
0 8 -20 -14 -10 -14 -15 -3 -33 l13 -21 29 21 c35 25 51 14 17 -13 -54 -43
-56 -42 -95 12 -50 70 -52 78 -24 100 27 21 39 24 39 9z m-98 -127 c18 -26 36
-52 40 -57 4 -6 14 -4 26 7 10 9 25 17 33 17 13 -1 -49 -59 -63 -60 -9 0 -88
116 -88 129 0 23 21 9 52 -36z m-42 -44 c25 -36 39 -67 36 -76 -5 -13 -12 -9
-32 18 -45 61 -66 98 -59 109 10 16 12 14 55 -51z m-70 -24 c0 -7 9 -17 20
-20 11 -3 23 -18 26 -32 6 -21 1 -32 -25 -55 -17 -15 -35 -28 -39 -28 -9 0
-82 113 -82 127 0 6 14 17 32 26 35 17 68 8 68 -18z m265 -169 c-28 -142 -99
-266 -181 -317 -19 -11 -88 -36 -154 -54 -216 -60 -332 -116 -388 -185 l-23
-29 -32 35 c-18 19 -61 49 -96 68 -64 34 -64 34 -40 49 47 29 164 94 181 100
52 18 490 301 668 430 l75 55 3 -35 c2 -19 -4 -72 -13 -117z m-348 69 c25 -39
33 -59 26 -66 -8 -8 -16 -2 -29 20 -21 35 -22 36 -47 17 -18 -14 -18 -16 -1
-41 11 -17 14 -29 7 -36 -9 -9 -40 28 -72 89 -18 34 8 72 49 72 25 0 36 -9 67
-55z m-155 -27 c29 -24 70 -100 60 -110 -7 -7 -22 8 -47 46 -38 60 -46 64 -65
41 -10 -12 -6 -24 20 -66 18 -30 29 -58 25 -68 -5 -12 -15 -2 -41 39 -40 63
-43 93 -12 114 27 19 39 20 60 4z m-89 -109 c39 -63 43 -74 28 -83 -10 -7 -81
105 -81 128 0 29 14 17 53 -45z m-988 -106 c-52 -45 -70 -44 -51 2 8 19 27 50
43 70 l28 35 9 -37 c8 -35 7 -39 -29 -70z m893 52 c18 -30 37 -55 41 -55 4 0
16 7 27 15 22 17 34 19 34 6 0 -9 -65 -51 -78 -51 -11 0 -81 123 -76 132 10
16 20 7 52 -47z m821 -42 c28 -55 10 -57 -48 -5 -40 35 -42 38 -31 69 l12 32
23 -27 c12 -15 32 -46 44 -69z m-884 28 c3 -5 0 -13 -7 -17 -6 -4 -14 -2 -16
4 -5 17 -41 15 -48 -2 -8 -22 44 -98 64 -94 9 2 18 12 18 23 1 11 2 26 3 33 2
26 21 0 21 -28 0 -31 -22 -50 -59 -50 -28 0 -74 69 -69 106 5 47 68 64 93 25z
m-159 -59 c-9 -11 -14 -26 -10 -36 7 -19 18 -20 45 -6 12 7 19 7 19 1 0 -6 -9
-15 -20 -21 -17 -9 -18 -14 -8 -35 11 -24 12 -24 35 -9 13 8 30 13 36 11 7 -2
-6 -15 -28 -29 -46 -30 -47 -30 -98 61 l-27 49 32 20 c37 24 49 21 24 -6z
m-697 -89 c-27 -51 -69 -88 -69 -59 0 9 11 21 23 25 22 8 29 21 52 86 5 13 9
16 12 7 3 -7 -6 -34 -18 -59z m1726 19 c7 -25 20 -41 38 -50 25 -12 38 -42 19
-42 -23 0 -82 94 -82 131 0 22 15 -1 25 -39z m-1782 14 c17 -13 23 -36 9 -36
-16 0 -52 32 -47 41 8 12 16 11 38 -5z m1793 -107 c35 -37 16 -38 -21 -1 -30
29 -55 80 -55 109 0 10 11 -4 24 -30 13 -27 37 -62 52 -78z m79 112 c5 -9 -31
-41 -47 -41 -14 0 -8 23 10 36 21 16 29 17 37 5z m-1765 -31 c0 -20 -12 -43
-36 -70 -20 -22 -41 -40 -46 -40 -6 0 3 15 20 34 17 19 36 51 43 70 16 44 19
45 19 6z m236 -157 c-8 -8 -55 25 -114 81 -58 55 -76 81 -67 96 3 5 47 -31 96
-81 50 -50 88 -94 85 -96z m353 160 c43 -53 39 -98 -9 -125 l-30 -17 -35 60
c-41 70 -43 82 -12 97 37 18 64 13 86 -15z m975 11 c8 -20 -72 -105 -148 -157
-77 -52 -186 -102 -260 -118 -57 -12 -59 -12 -77 10 -11 13 -19 27 -19 32 0 8
150 58 245 80 93 22 168 69 211 131 29 42 39 46 48 22z m-1710 -33 c3 -4 -18
-28 -47 -52 l-52 -44 43 53 c47 56 48 57 56 43z m1967 -43 l44 -53 -53 43
c-28 24 -49 48 -46 53 8 13 7 14 55 -43z m-1328 -43 c37 -63 20 -86 -18 -25
-14 23 -29 48 -32 56 -7 18 -42 18 -49 0 -3 -7 9 -37 26 -65 28 -45 32 -71 12
-71 -14 0 -64 107 -60 130 1 14 14 30 28 37 33 16 56 1 93 -62z m-478 34 c-9
-17 -19 -29 -22 -26 -5 5 25 57 33 57 3 0 -3 -14 -11 -31z m1606 -14 c8 -16 6
-15 -10 4 -12 13 -21 28 -21 35 0 12 14 -5 31 -39z m-1513 -16 c26 -22 73 -57
105 -77 l59 -36 -64 -32 c-35 -18 -73 -33 -84 -34 -21 0 -83 59 -119 113 -17
27 -17 27 14 56 17 16 31 34 31 40 0 18 10 13 58 -30z m1467 21 c3 -11 18 -28
32 -39 l25 -21 -37 -50 c-20 -28 -53 -62 -71 -77 -34 -25 -37 -26 -142 -20
-59 3 -118 9 -131 13 -21 6 -17 10 34 30 64 26 208 119 244 158 29 31 38 32
46 6z m-1217 -69 c31 -58 40 -91 25 -91 -12 0 -84 131 -77 141 10 17 19 8 52
-50z m-386 -19 c9 -15 35 -49 59 -75 l42 -48 -34 5 c-19 3 -68 10 -109 17 -41
6 -79 14 -83 16 -8 5 91 113 103 113 3 0 13 -12 22 -28z m1752 -21 c27 -27 46
-53 42 -59 -3 -5 -40 -15 -83 -21 -43 -7 -91 -14 -107 -18 l-30 -5 43 48 c23
27 50 61 59 76 9 16 19 28 22 28 3 0 27 -22 54 -49z m-564 -148 l0 -48 -25 44
c-14 23 -25 45 -25 47 0 2 11 4 25 4 23 0 25 -3 25 -47z m-681 -14 l-24 -42
-3 29 c-3 20 3 34 19 46 32 27 34 15 8 -33z m-833 -29 c46 -20 46 -21 29 -40
-10 -11 -19 -19 -19 -17 -1 1 -17 19 -35 40 -40 43 -39 44 25 17z m2348 -15
c-30 -39 -36 -42 -54 -20 -15 18 -15 17 25 38 49 26 58 20 29 -18z m-2243 -53
c-59 -3 -69 1 -52 22 11 13 18 12 59 -2 l47 -17 -54 -3z m2169 18 c10 -19 8
-20 -57 -19 l-68 1 50 18 c64 24 62 24 75 0z m-1494 -84 l31 0 -17 -40 c-10
-23 -21 -77 -25 -121 -7 -74 -9 -81 -43 -112 l-35 -33 33 13 c46 17 57 40 69
144 9 84 34 163 48 149 3 -3 -2 -23 -11 -46 -27 -69 -18 -77 35 -33 l32 27 28
-34 29 -34 -44 -29 -45 -29 34 -44 c18 -24 36 -53 40 -64 3 -11 13 -20 21 -20
8 0 14 -4 14 -8 0 -8 -54 -52 -63 -52 -3 0 -10 13 -17 30 l-12 30 -31 -26
c-25 -21 -36 -24 -61 -18 -17 5 -62 8 -99 8 l-68 -1 30 31 c38 39 43 86 10 86
-18 0 -20 2 -8 16 8 10 21 13 36 9 26 -6 27 -6 13 29 -7 19 -17 26 -36 26 -22
0 -25 2 -14 15 7 8 22 15 34 15 14 0 28 13 41 38 l20 37 -38 2 c-21 2 -47 -2
-58 -8 -28 -14 -24 7 6 37 22 21 31 24 58 17 18 -4 46 -7 63 -7z m792 -38 c37
-49 34 -61 -9 -29 l-30 22 -35 -26 c-29 -22 -43 -26 -75 -22 -34 4 -39 2 -39
-14 0 -15 7 -19 35 -19 24 0 35 -5 35 -14 0 -31 -13 -46 -40 -46 -27 0 -27 -1
-33 -74 -3 -41 -11 -84 -17 -96 -6 -12 -37 -34 -68 -48 -45 -21 -71 -27 -127
-26 -40 0 -73 -4 -77 -10 -5 -6 -8 -1 -8 12 0 23 32 62 50 62 6 0 28 -9 50
-20 39 -20 39 -20 50 -1 5 11 10 60 10 110 l0 91 -31 0 c-17 0 -39 -5 -50 -10
-14 -8 -19 -7 -19 3 0 20 40 54 73 62 20 5 27 13 27 31 0 19 5 24 28 24 15 0
47 12 71 25 36 21 52 24 91 19 41 -5 51 -3 66 15 26 30 35 27 72 -21z m870
-90 c34 -42 62 -82 62 -90 0 -20 -33 -65 -91 -126 -148 -152 -395 -279 -600
-307 l-46 -6 -23 63 c-12 35 -25 68 -27 75 -3 6 10 14 29 18 18 3 84 17 146
31 l112 26 0 148 0 149 43 11 c143 36 205 54 260 75 34 13 65 20 68 17 3 -4
33 -42 67 -84z m-2345 38 c65 -20 124 -36 130 -36 7 0 29 -5 50 -11 l37 -10 0
-148 0 -148 88 -16 c48 -9 110 -19 138 -23 80 -10 80 -11 48 -98 l-28 -76 -41
6 c-124 16 -269 70 -405 150 -90 53 -224 172 -271 240 l-30 44 68 85 c43 54
74 84 83 81 8 -2 68 -20 133 -40z m1618 -26 c19 0 29 -5 29 -15 0 -10 -10 -15
-26 -15 l-27 0 7 -77 c7 -76 18 -98 44 -88 19 7 14 -10 -10 -32 -22 -21 -24
-21 -56 -4 -32 17 -33 18 -36 100 -2 52 -9 86 -16 91 -9 6 -3 21 21 56 l34 49
3 -32 c3 -29 7 -33 33 -33z m-122 -44 l24 -25 -33 -27 c-53 -45 -61 -56 -56
-71 3 -8 6 -18 6 -23 0 -15 38 -22 60 -10 34 18 22 -3 -18 -31 -34 -24 -40
-25 -72 -14 -19 6 -34 15 -32 18 1 4 2 46 2 95 l0 87 33 21 c35 24 48 21 86
-20z m-478 -85 c-8 -15 -24 -20 -66 -23 -30 -1 -55 -1 -55 2 1 40 14 49 69 52
61 3 68 -1 52 -31z m-191 -499 l235 -244 232 236 c200 204 236 236 264 238 75
6 53 -23 -222 -298 -145 -145 -268 -264 -274 -264 -10 0 -132 122 -417 415
-104 107 -115 123 -107 143 6 17 15 22 31 20 15 -2 111 -94 258 -246z"/>
<path d="M1650 3519 c0 -5 5 -7 10 -4 6 3 10 8 10 11 0 2 -4 4 -10 4 -5 0 -10
-5 -10 -11z"/>
<path d="M1650 3450 c0 -5 5 -10 11 -10 5 0 7 5 4 10 -3 6 -8 10 -11 10 -2 0
-4 -4 -4 -10z"/>
<path d="M2055 3460 c-8 -13 4 -50 16 -50 5 0 18 5 28 12 15 9 17 16 10 30
-10 19 -44 24 -54 8z"/>
<path d="M1790 3290 c-13 -8 -13 -13 0 -37 18 -32 38 -36 53 -11 9 13 7 22 -7
37 -22 24 -25 25 -46 11z"/>
<path d="M2677 2103 c-3 -5 -2 -15 3 -22 10 -17 43 -6 38 12 -6 15 -34 22 -41
10z"/>
<path d="M2716 2057 c-14 -11 -14 -14 3 -35 16 -22 19 -23 34 -8 28 29 -4 67
-37 43z"/>
<path d="M2700 1729 c0 -5 5 -7 10 -4 6 3 10 8 10 11 0 2 -4 4 -10 4 -5 0 -10
-5 -10 -11z"/>
<path d="M2765 1730 c3 -5 8 -10 11 -10 2 0 4 5 4 10 0 6 -5 10 -11 10 -5 0
-7 -4 -4 -10z"/>
<path d="M2565 2030 c-7 -12 3 -50 13 -50 4 0 16 7 26 15 16 12 17 17 6 30
-14 17 -36 20 -45 5z"/>
<path d="M1965 1660 c-4 -6 7 -33 22 -60 27 -47 30 -49 49 -36 19 14 19 15 -6
60 -24 44 -51 59 -65 36z"/>
<path d="M1922 1020 c-19 -18 -31 -70 -16 -70 3 0 21 12 39 26 30 22 33 28 22
45 -15 24 -18 24 -45 -1z"/>
<path d="M1885 891 c-15 -29 -15 -30 20 -41 55 -18 73 7 35 48 -27 29 -37 28
-55 -7z"/>
<path d="M2400 948 c-1 -62 -6 -119 -15 -143 -17 -49 -14 -54 14 -19 19 24 21
40 21 145 0 73 -4 119 -10 119 -6 0 -10 -41 -10 -102z"/>
<path d="M2620 947 c0 -40 10 -46 30 -21 11 13 10 19 -8 37 l-22 21 0 -37z"/>
</g>
</svg>
