<?xml version="1.0" standalone="no"?>
<!DOCTYPE svg PUBLIC "-//W3C//DTD SVG 20010904//EN"
 "http://www.w3.org/TR/2001/REC-SVG-20010904/DTD/svg10.dtd">
<svg version="1.0" xmlns="http://www.w3.org/2000/svg"
 width="512.000000pt" height="512.000000pt" viewBox="0 0 512.000000 512.000000"
 preserveAspectRatio="xMidYMid meet">
<metadata>
Created by potrace 1.11, written by Peter Selinger 2001-2013
</metadata>
<g transform="translate(0.000000,512.000000) scale(0.100000,-0.100000)"
fill="#000000" stroke="none">
<path d="M2355 5100 c-71 -5 -191 -18 -265 -29 -656 -96 -1076 -329 -1196
-663 -8 -24 -19 -99 -24 -168 -12 -158 -18 -190 -34 -190 -7 0 -82 45 -166
100 -85 55 -160 100 -167 100 -23 0 -25 -26 -4 -66 11 -22 56 -118 101 -214
45 -96 114 -234 155 -306 41 -72 81 -146 89 -165 11 -28 15 -155 19 -684 6
-695 13 -829 53 -969 14 -48 23 -90 21 -92 -2 -3 -40 9 -83 26 -43 16 -80 30
-82 30 -12 0 35 -43 138 -129 63 -52 140 -121 170 -152 63 -65 116 -136 107
-145 -8 -9 -170 32 -291 73 -55 18 -102 33 -105 33 -3 0 78 -48 179 -106 102
-58 188 -109 192 -113 4 -4 -24 -49 -62 -101 -44 -60 -70 -105 -70 -121 0 -35
105 -157 204 -237 147 -118 297 -192 494 -243 145 -37 158 -37 180 2 9 17 22
37 27 45 8 12 72 -47 323 -298 l312 -313 316 315 c174 173 318 311 321 305 2
-5 12 -26 21 -45 l18 -35 62 3 c185 9 503 161 677 323 82 78 139 160 132 191
-4 13 -34 59 -68 103 -33 44 -65 87 -69 96 -7 12 27 35 175 119 101 58 183
106 181 107 -1 2 -56 -15 -121 -37 -115 -39 -263 -75 -272 -67 -6 7 63 96 121
155 28 29 104 99 169 155 65 56 114 103 109 105 -5 1 -39 -8 -76 -21 -36 -14
-66 -22 -66 -18 0 3 7 29 16 56 46 149 46 144 54 930 l7 750 93 160 c100 172
151 275 224 452 44 108 55 153 37 153 -4 0 -44 -26 -87 -57 -109 -78 -172
-117 -220 -136 l-42 -16 -7 132 c-8 164 -25 240 -73 331 -132 253 -508 457
-992 541 -232 40 -620 60 -855 45z m157 -1112 c-60 -126 -95 -222 -129 -353
-26 -100 -26 -100 -32 -645 l-7 -545 -26 -78 c-57 -169 -146 -276 -435 -524
-133 -114 -140 -122 -124 -138 17 -14 37 -6 287 130 238 128 276 152 325 205
66 70 109 147 140 250 22 72 23 95 29 615 7 580 10 612 66 810 30 107 90 253
139 341 33 59 38 64 70 64 19 0 35 -2 35 -4 0 -2 -22 -50 -50 -107 -59 -125
-112 -283 -140 -417 -20 -98 -44 -327 -38 -357 6 -30 305 203 532 414 60 56
113 100 118 99 4 -2 99 -104 209 -228 l201 -225 -28 -20 c-152 -111 -306 -230
-439 -339 -87 -72 -165 -136 -173 -141 -10 -8 5 -23 70 -65 46 -30 127 -97
182 -149 107 -104 159 -177 391 -554 l129 -208 51 51 c28 27 55 50 61 50 6 0
21 -11 34 -25 l23 -25 -99 -107 c-55 -60 -144 -156 -198 -216 -55 -59 -103
-107 -107 -107 -23 0 -196 242 -282 393 l-45 79 -212 -242 c-162 -184 -216
-240 -228 -235 -10 4 -82 29 -162 55 -222 73 -287 85 -485 85 -212 0 -231 -4
-705 -142 -9 -2 -25 9 -38 27 l-24 31 146 149 c80 82 159 169 177 192 82 113
115 223 104 341 -8 79 -29 129 -69 166 -37 35 -121 40 -198 13 -32 -11 -58
-17 -58 -13 0 23 33 99 57 129 14 19 46 43 71 54 62 28 188 21 285 -15 l69
-25 -7 71 c-20 193 -92 334 -199 389 -57 29 -198 36 -282 14 -34 -9 -67 -16
-73 -16 -18 0 36 97 80 145 80 87 222 112 369 66 36 -12 66 -21 66 -21 1 0 4
33 8 73 15 157 65 308 137 414 43 64 167 191 257 265 40 33 71 62 68 65 -3 3
-31 -11 -63 -30 -96 -58 -241 -125 -299 -138 -44 -10 -94 -10 -237 -1 -160 11
-189 11 -242 -3 -98 -26 -175 -81 -247 -175 -27 -35 -27 -35 -28 -9 0 45 39
181 75 257 60 127 156 209 290 247 78 23 228 16 385 -18 208 -46 268 -44 446
17 52 17 70 20 72 10 2 -7 -19 -59 -46 -116z"/>
<path d="M2793 3242 l-172 -127 -1 -256 0 -257 25 -4 c21 -4 55 20 201 143 96
82 225 188 285 235 67 53 108 92 105 100 -9 23 -249 294 -260 293 -6 0 -89
-57 -183 -127z"/>
<path d="M2607 2392 c-33 -160 -100 -297 -202 -410 l-44 -49 152 -11 c178 -14
262 -30 411 -80 l110 -36 49 55 c27 30 65 73 85 97 l36 43 -19 32 c-44 78
-148 228 -189 274 -84 93 -197 153 -316 168 l-55 7 -18 -90z"/>
</g>
</svg>
